<svg xmlns="http://www.w3.org/2000/svg" width="41" height="37" viewBox="0 0 41 37">
  <metadata><?xpacket begin="﻿" id="W5M0MpCehiHzreSzNTczkc9d"?>
<x:xmpmeta xmlns:x="adobe:ns:meta/" x:xmptk="Adobe XMP Core 5.6-c138 79.159824, 2016/09/14-01:09:01        ">
   <rdf:RDF xmlns:rdf="http://www.w3.org/1999/02/22-rdf-syntax-ns#">
      <rdf:Description rdf:about=""/>
   </rdf:RDF>
</x:xmpmeta>
                                                                                                    
                                                                                                    
                                                                                                    
                                                                                                    
                                                                                                    
                                                                                                    
                                                                                                    
                                                                                                    
                                                                                                    
                                                                                                    
                                                                                                    
                                                                                                    
                                                                                                    
                                                                                                    
                                                                                                    
                                                                                                    
                                                                                                    
                                                                                                    
                                                                                                    
                                                                                                    
                           
<?xpacket end="w"?></metadata>
<defs>
    <style>
      .cls-1 {
        fill: #3cc3b5;
        fill-rule: evenodd;
      }
    </style>
  </defs>
  <path class="cls-1" d="M19.9,0.009a2.962,2.962,0,0,0-2.939,2.382H16.88L7.231,13.132h4.825l6.674-7.42a3.033,3.033,0,0,0,1.166.263,3.069,3.069,0,0,0,1.173-.263l6.667,7.42h4.832L22.912,2.391H22.835A2.949,2.949,0,0,0,19.9.009h0ZM2.407,15.515A2.4,2.4,0,0,0-.009,17.9V19.1a2.368,2.368,0,0,0,2.228,2.349L6.023,34.6C7.231,36.99,8.439,36.99,9.639,36.99H31.36c1.208,0,2.409,0,3.617-2.388l3.812-13.158a2.368,2.368,0,0,0,2.22-2.349V17.9A2.393,2.393,0,0,0,38.6,15.515H2.407Zm6.786,5.965h0.6a3.1,3.1,0,0,1,2.94,2.237l1.7,7.422a1.826,1.826,0,0,1-1.92,2.271H11.9a3.126,3.126,0,0,1-2.939-2.271l-1.7-7.422a1.808,1.808,0,0,1,1.927-2.237h0Zm11.31,0a2.393,2.393,0,0,1,2.409,2.389v7.157a2.412,2.412,0,0,1-4.824,0V23.868A2.4,2.4,0,0,1,20.5,21.479h0Zm10.7,0h0.608a1.8,1.8,0,0,1,1.92,2.237l-1.7,7.422a3.125,3.125,0,0,1-2.94,2.271H28.49a1.827,1.827,0,0,1-1.919-2.271l1.7-7.422a3.1,3.1,0,0,1,2.939-2.237h0Z"/>
</svg>
